<svg width="48" height="48" viewBox="0 0 48 48" fill="none" xmlns="http://www.w3.org/2000/svg">
<path d="M11.6462 20.8744H17.52C17.7851 20.8744 18 21.0893 18 21.3544V29.9944C18 30.2595 17.7851 30.4744 17.52 30.4744H7.10396L11.2069 21.1609C11.2836 20.9868 11.4559 20.8744 11.6462 20.8744Z" stroke="black" stroke-width="1.44"/>
<path d="M12.7109 22.7943H15.8401L15.8401 25.1943H11.6609L12.7109 22.7943Z" stroke="black" stroke-width="1.44"/>
<path fill-rule="evenodd" clip-rule="evenodd" d="M33.4079 10.5164C33.209 10.172 33.327 9.73168 33.6714 9.53286C34.0158 9.33404 34.4561 9.45203 34.6549 9.7964L35.2072 10.7529C35.2487 10.7953 35.2855 10.8435 35.3163 10.8967L39.9525 18.9269C39.9833 18.9802 40.0065 19.0361 40.0225 19.0934L40.5424 19.9938C40.7412 20.3381 40.6232 20.7785 40.2788 20.9773C39.9345 21.1761 39.4941 21.0581 39.2953 20.7138L39.1891 20.5299L32.708 27.8388C32.5858 27.9766 32.4154 28.0623 32.2318 28.0783L29.3138 28.3328V26.8873L31.152 26.727L29.3138 23.5432V23.3094C29.3138 22.9749 29.0857 22.6937 28.7766 22.6128L24.4819 15.174L20.4546 19.9968L24.5986 27.1745V28.7439L24.335 28.7669C24.0564 28.7912 23.7888 28.6518 23.649 28.4096L18.9561 20.2813C18.8051 20.0197 18.8334 19.6917 19.027 19.4598L23.925 13.5943C24.0192 13.4815 24.1456 13.4003 24.2874 13.3614L33.5803 10.815L33.4079 10.5164ZM38.4302 19.2153L34.3246 12.1042L25.7317 14.4587L32.4025 26.0129L38.4302 19.2153Z" fill="black"/>
<circle cx="11.1601" cy="35.8744" r="2.76" stroke="black" stroke-width="1.44"/>
<path d="M33.6 35.8744C33.6 37.4227 32.3944 38.6344 30.96 38.6344C29.5255 38.6344 28.32 37.4227 28.32 35.8744C28.32 34.3261 29.5255 33.1144 30.96 33.1144C32.3944 33.1144 33.6 34.3261 33.6 35.8744Z" stroke="black" stroke-width="1.44"/>
<path fill-rule="evenodd" clip-rule="evenodd" d="M26.0386 24.0294V29.204C26.0386 30.397 25.0716 31.364 23.8786 31.364H7.70196V33.1992H8.93398C8.47762 33.5793 8.12006 34.0741 7.90548 34.6392H6.98196C6.58432 34.6392 6.26196 34.3168 6.26196 33.9192V30.644C6.26196 30.2464 6.58432 29.924 6.98196 29.924H23.8786C24.2763 29.924 24.5986 29.6017 24.5986 29.204V23.3094C24.5986 22.9117 24.921 22.5894 25.3186 22.5894H28.5938C28.9914 22.5894 29.3138 22.9117 29.3138 23.3094V29.204C29.3138 29.6017 29.6362 29.924 30.0338 29.924H35.4046C35.8023 29.924 36.1246 30.2464 36.1246 30.644V33.9192C36.1246 34.3168 35.8023 34.6392 35.4046 34.6392H34.1023C33.8951 34.0741 33.5499 33.5793 33.1093 33.1992H34.6846V31.364H30.0338C28.8409 31.364 27.8738 30.397 27.8738 29.204V24.0294H26.0386ZM28.8109 33.1992H13.3859C13.8422 33.5793 14.1998 34.0741 14.4144 34.6392H27.8179C28.0251 34.0741 28.3703 33.5793 28.8109 33.1992Z" fill="black"/>
</svg>
