<svg width="48" height="48" fill="none" xmlns="http://www.w3.org/2000/svg">
<path fill-rule="evenodd" clip-rule="evenodd" d="M34.7999 18.4799H28.5599C26.5717 18.4799 24.9599 16.8682 24.9599 14.8799V8.88H13.9199C13.5223 8.88 13.1999 9.20235 13.1999 9.6V38.4C13.1999 38.7976 13.5223 39.12 13.9199 39.12H34.0799C34.4776 39.12 34.7999 38.7976 34.7999 38.4V18.4799ZM24.9599 6H28.0799H28.2338L37.6799 15.4461V38.4C37.6799 40.3882 36.0682 42 34.0799 42H13.9199C11.9317 42 10.3199 40.3882 10.3199 38.4V9.6C10.3199 7.61177 11.9317 6 13.9199 6H24.9599ZM27.8399 14.8799V9.83294L33.6069 15.5999H28.5599C28.1622 15.5999 27.8399 15.2776 27.8399 14.8799ZM16.7999 21.12H31.1999V24.24H16.7999V21.12ZM31.1999 25.68H16.7999V28.8H31.1999V25.68ZM16.7999 30.24H25.4399V33.36H16.7999V30.24Z" fill="black"/>
</svg>
