<svg width="48" height="48" viewBox="0 0 48 48" fill="none" xmlns="http://www.w3.org/2000/svg">
<path d="M31.62 17.7183C31.62 19.8733 30.7344 22.5285 29.2556 24.6384C27.7564 26.7774 25.9015 28.02 24.12 28.02C22.3385 28.02 20.4836 26.7774 18.9844 24.6384C17.5056 22.5285 16.62 19.8733 16.62 17.7183C16.62 15.3424 17.056 13.4961 18.0789 12.2513C19.0523 11.0667 20.8011 10.14 24.12 10.14C27.4388 10.14 29.1876 11.0667 30.1611 12.2513C31.184 13.4961 31.62 15.3424 31.62 17.7183Z" stroke="black" stroke-width="3"/>
<mask id="path-2-inside-1_960_841" fill="white">
<path fill-rule="evenodd" clip-rule="evenodd" d="M41.9539 39.3362C42.0865 39.3362 42.1944 39.2283 42.1896 39.0958C42.024 34.5224 37.1456 30.6456 30.3522 29.1441C30.2713 29.1263 30.1863 29.152 30.1281 29.2109C28.403 30.9568 26.3286 32.0974 24.0969 32.0974C21.8653 32.0974 19.7909 30.9568 18.0658 29.2109C18.0075 29.152 17.9226 29.1263 17.8416 29.1441C11.0482 30.6456 6.16988 34.5224 6.0043 39.0958C5.99951 39.2283 6.10741 39.3362 6.23996 39.3362H41.9539Z"/>
</mask>
<path d="M18.0658 29.2109L15.9318 31.3195L18.0658 29.2109ZM17.8416 29.1441L18.4891 32.0735L17.8416 29.1441ZM30.3522 29.1441L30.9997 26.2148L30.3522 29.1441ZM30.1281 29.2109L32.262 31.3195L30.1281 29.2109ZM42.1896 39.0958L39.1915 39.2043L42.1896 39.0958ZM45.1876 38.9873C45.065 35.6002 43.2021 32.7523 40.6686 30.6565C38.1342 28.5598 34.7505 27.0438 30.9997 26.2148L29.7048 32.0735C32.7474 32.7459 35.1995 33.919 36.8441 35.2795C38.4895 36.6408 39.1486 38.018 39.1915 39.2043L45.1876 38.9873ZM27.9941 27.1023C26.6178 28.4952 25.2655 29.0974 24.0969 29.0974V35.0974C27.3916 35.0974 30.1881 33.4184 32.262 31.3195L27.9941 27.1023ZM24.0969 29.0974C22.9284 29.0974 21.5761 28.4952 20.1997 27.1023L15.9318 31.3195C18.0057 33.4184 20.8022 35.0974 24.0969 35.0974V29.0974ZM17.1942 26.2148C13.4434 27.0438 10.0596 28.5598 7.52527 30.6565C4.99182 32.7523 3.12889 35.6002 3.00627 38.9873L9.00234 39.2043C9.04529 38.018 9.70433 36.6408 11.3498 35.2795C12.9944 33.9191 15.4465 32.7459 18.4891 32.0735L17.1942 26.2148ZM41.9539 36.3362H6.23996V42.3362H41.9539V36.3362ZM3.00627 38.9873C2.93767 40.8821 4.47279 42.3362 6.23996 42.3362V36.3362C7.74203 36.3362 9.06135 37.5745 9.00234 39.2043L3.00627 38.9873ZM20.1997 27.1023C19.4292 26.3225 18.2986 25.9707 17.1942 26.2148L18.4891 32.0735C17.5465 32.2818 16.5859 31.9814 15.9318 31.3195L20.1997 27.1023ZM30.9997 26.2148C29.8953 25.9707 28.7647 26.3225 27.9941 27.1023L32.262 31.3195C31.608 31.9814 30.6474 32.2818 29.7048 32.0735L30.9997 26.2148ZM39.1915 39.2043C39.1325 37.5745 40.4518 36.3362 41.9539 36.3362V42.3362C43.7211 42.3362 45.2562 40.8821 45.1876 38.9873L39.1915 39.2043Z" fill="black" mask="url(#path-2-inside-1_960_841)"/>
</svg>
